<?xml version="1.0" encoding="utf-8"?>
<svg version="1.1" xmlns="http://www.w3.org/2000/svg" xmlns:xlink="http://www.w3.org/1999/xlink"
  x="0px" y="0px"
  viewBox="0 0 964.5 169.6" style="enable-background:new 0 0 964.5 169.6;" xml:space="preserve">
<style type="text/css">
	.st0{fill:#37404E;}
	.st1{fill:#4961AC;}
</style>
<g>
	<g>
		<path class="st1" d="M200.3,127.9v36.7h-7.1v-36.7H200.3z"/>
		<path class="st1" d="M227.8,164.6v-36.7h4.9l22.3,24.5v-24.5h7.1v36.7h-4.9l-22.3-24.5v24.5H227.8z"/>
		<path class="st1" d="M307.7,136.3c-2.1-2.9-4.7-3.1-6-3.1c-3.8,0-5.1,2.4-5.1,4.3c0,0.9,0.3,1.7,1.2,2.5c0.9,0.8,2.1,1.3,4.4,2.1
			c2.9,1,5.6,2,7.4,3.7c1.7,1.5,3.1,4,3.1,7.7c0,7.1-5.2,12-12.8,12c-6.8,0-10.7-4.1-12.6-6.9l4.7-4.5c1.8,3.6,5.1,4.9,7.7,4.9
			c3.2,0,5.7-2,5.7-5.1c0-1.3-0.4-2.4-1.4-3.3c-1.4-1.3-3.6-2-5.7-2.7c-1.9-0.7-4.2-1.5-6.1-3.2c-1.2-1-2.9-3.1-2.9-6.8
			c0-5.4,3.6-10.8,11.8-10.8c2.3,0,6.7,0.4,10.4,4.3L307.7,136.3z"/>
		<path class="st1" d="M349.1,134.1v30.5h-7.1v-30.5h-8.2v-6.2h23.6v6.2H349.1z"/>
		<path class="st1" d="M388.1,127.9v36.7h-7.1v-36.7H388.1z"/>
		<path class="st1" d="M427.1,134.1v30.5h-7.1v-30.5h-8.2v-6.2h23.6v6.2H427.1z"/>
		<path class="st1" d="M466.1,127.9v23c0,2.8,0.9,4.5,1.8,5.4c1,1.3,3,2.5,5.8,2.5c2.9,0,4.8-1.3,5.8-2.5c0.8-0.9,1.8-2.6,1.8-5.4
			v-23h7.1v22.4c0,3.5-0.5,7-2.7,9.8c-2.6,3.5-7.3,5.3-12,5.3c-4.7,0-9.3-1.8-12-5.3c-2.2-2.8-2.7-6.3-2.7-9.8v-22.4H466.1z"/>
		<path class="st1" d="M527.4,134.1v30.5h-7.1v-30.5H512v-6.2h23.6v6.2H527.4z"/>
		<path class="st1" d="M579.6,134.1h-13.2v8.2H579v6.2h-12.6v10h13.2v6.2h-20.3v-36.7h20.3V134.1z"/>
	</g>
	<g>
		<path class="st0" d="M193.2,103.7v-89l60.5,63.4V20.3h12.8v88.5l-60.5-63.4v58.2H193.2z"/>
		<path class="st0" d="M318.7,53.7h-23.3v14.8H318v8.4h-22.6v18.4h23.3v8.4h-32.2V45.3h32.2V53.7z"/>
		<path class="st0" d="M341.4,45.3v35.2c0,3.1,0.1,7,1.8,10.1c1.7,3,5.7,6,10.8,6s9.1-3.1,10.8-6c1.8-3.1,1.8-6.9,1.8-10.1V45.3h8.9
			v37.5c0,4.6-1,10.2-5.4,15.1c-3.1,3.3-8.2,6.8-16.2,6.8s-13.1-3.5-16.2-6.8c-4.5-4.9-5.4-10.5-5.4-15.1V45.3H341.4z"/>
		<path class="st0" d="M402.3,45.3c7.1,0,11.6,0.9,15.4,3.4c6.4,4.3,6.9,11.2,6.9,13.7c0,8.4-5.2,14.5-12.9,16.3l18.2,24.9h-10.8
			l-16.7-23.9h-1.6v23.9h-8.9V45.3H402.3z M400.8,72.1h2.8c2.5,0,12.4-0.3,12.4-9.5c0-8.2-7.8-9-12.2-9h-3.1V72.1z"/>
		<path class="st0" d="M498.7,74.6c0,17.1-12.9,30.3-30.4,30.3c-17.5,0-30.4-13.1-30.4-30.3c0-17.1,12.9-30.3,30.4-30.3
			C485.9,44.3,498.7,57.4,498.7,74.6z M489.8,74.6c0-12.9-8.9-22-21.4-22c-12.5,0-21.4,9.1-21.4,22s8.9,22,21.4,22
			C480.9,96.6,489.8,87.5,489.8,74.6z"/>
		<path class="st0" d="M532.6,20.3c11.6,0,21.8,1.2,31,8.1c10.1,7.6,16,19.8,16,33.6s-5.8,25.9-16.8,33.6c-9.8,6.9-18.9,8-30.5,8
			h-17.2V20.3H532.6z M527.9,91.7h5.5c6.2,0,14.9-0.5,22.1-5.9c5.8-4.4,11.4-12.4,11.4-23.8c0-11-5.2-19.6-11.2-24
			c-7.2-5.2-16.1-5.8-22.2-5.8h-5.5V91.7z"/>
		<path class="st0" d="M607.9,78.5l-19.2-33.2h10.1l13.5,23.4l13.5-23.4H636l-19.2,33.2v25.2h-8.9V78.5z"/>
		<path class="st0" d="M645.2,103.7V41.4l42.3,44.4V45.3h8.9v61.9l-42.3-44.4v40.8H645.2z"/>
		<path class="st0" d="M746.9,89.6H722l-6.4,14.1H706l29-61.8l27.6,61.8h-9.6L746.9,89.6z M743.4,81.2l-8.7-19.8l-9,19.8H743.4z"/>
		<path class="st0" d="M770.5,103.7L782.7,41L803,86.3L823.5,41l11,62.7h-9.1l-5.9-35.2l-17,37.9l-16.8-38l-6.1,35.3H770.5z"/>
		<path class="st0" d="M857.9,45.3v58.4H849V45.3H857.9z"/>
		<path class="st0" d="M917.3,59c-6.5-5.9-12.5-6.5-15.8-6.5c-12.7,0-21.3,9.4-21.3,22.2c0,12.3,8.9,21.9,21.3,21.9
			c7,0,12.4-3.6,15.7-6.7v10.6c-5.9,3.5-12,4.4-16,4.4c-10.6,0-17.2-4.8-20.6-8c-6.8-6.4-9.4-13.8-9.4-22c0-10.8,4.5-18.2,9.4-22.8
			c6-5.7,13-7.6,21.1-7.6c5.3,0,10.5,1,15.6,4.2V59z"/>
		<path class="st0" d="M955.7,58.3c-0.5-1.3-1.3-2.5-2.6-3.7c-1.8-1.5-3.8-2.1-6.3-2.1c-5.4,0-8.2,3.2-8.2,7c0,1.8,0.6,4.8,6.3,7.1
			l5.9,2.4c10.8,4.4,13.7,10.5,13.7,17.1c0,11.1-7.9,18.7-18.8,18.7c-6.7,0-10.8-2.5-13.7-5.9c-3.1-3.5-4.5-7.3-4.9-11.4l8.8-1.9
			c0,2.9,1,5.6,2.4,7.4c1.7,2.1,4.1,3.5,7.6,3.5c5.4,0,9.6-3.9,9.6-9.8c0-5.9-4.5-8.4-8.4-10l-5.6-2.4c-4.8-2-11.9-6-11.9-14.8
			c0-7.9,6.1-15.4,17.1-15.4c6.3,0,9.9,2.4,11.7,3.9c1.6,1.4,3.2,3.4,4.5,5.9L955.7,58.3z"/>
	</g>
	<g>
		<path class="st0" d="M32.8,125c0.2,0.7,0.4,1.5,0.7,2.2
			c3.5,9.6,10.9,9.1,15.3,7.8c0.2-0.3,0.5-0.6,0.8-0.9c1.4-1.5,3.1-2.5,4.7-3.5c0.9-0.6,1.8-1.2,2.6-1.8c5.5-4.3,8.1-6.1,6.4-12.8
			c-0.3-1.2,0.4-2.5,1.6-2.8c1.2-0.3,2.5,0.4,2.8,1.6c2.2,8.4-1.1,12.2-8,17.5c-1,0.8-2,1.4-2.9,2c-0.9,0.6-1.8,1.2-2.7,1.8
			c0.4,0.4,0.8,0.8,1.2,1.1c4.7,4,7.7,9.7,7.5,15.8l-0.5,11c-0.1,2.9,2.1,5.3,4.9,5.4l0,0c2.9,0.2,5.4-2.1,5.5-5
			c0.5-9.8,2.7-30.1,13-32.5c3.4-0.8,6.1-2.6,8.1-4.8c-3.8-3.6-9.3-5.6-14.5-5c-1.3,0.1-2.4-0.8-2.5-2c-0.1-1.3,0.8-2.4,2-2.5
			c6.3-0.7,12.9,1.5,17.7,5.8c2.3-4,3.3-8.4,3.7-11.1c-5.5-2.5-10.4-6.1-15.1-9.6c-0.8-0.6-1.7-1.2-2.5-1.9
			c-0.2-0.2-0.4-0.3-0.6-0.5c-0.6-0.6-1.4-0.8-2.2-0.7l0,0c-0.7,0.1-1.3,0.5-1.7,1.1c-1.5,2.3-4.2,3.7-7.1,3.6
			c-14.6-0.5-26.3,5.1-34.7,16.8C35.3,122.7,34.1,124,32.8,125"/>
		<path class="st1" d="M8.9,118.8c5.9,7.6,17.5,7.3,23.1-0.5
			c0.2-0.3,0.4-0.5,0.6-0.8c3.7-5,7.9-8.8,12.4-11.7c7.9-5,16.9-6.9,26.1-6.6c3.1,0.1,4.3-4.1,1.5-5.5L71,92.9
			c-11.5-5.9-24.4-4.1-36.2,1.2c-1.1,0.5-2.4,0.1-3-1c-0.6-1.1-0.1-2.5,1-3.1c12.8-6.7,28.7-6.8,41.6-0.4l0,0
			c0.9,0.4,1.7-0.6,1.1-1.4c-1.1-1.3-2.3-2.6-3.7-3.7C71,83.7,70,82.9,69,82.2c-1.8-1.4-3.7-2.8-5.3-4.6c-3.3-3.6-4.6-7.9-3.5-11.7
			c0.3-1.2,1.6-1.9,2.8-1.6c1.2,0.3,1.9,1.6,1.6,2.8c-0.7,2.6,0.8,5.5,2.5,7.3c1.4,1.5,3,2.7,4.7,4c1,0.8,2.1,1.6,3.1,2.4
			C79.5,84.9,83,90,85,95.8c0.1,0.4,0.3,0.7,0.7,0.9c0.8,0.6,1.5,1.1,2.3,1.7c0.1,0.1,0.2,0.1,0.3,0.2c4.1,3.1,8.1,6.1,12.4,8.3
			c0.6,0.3,1.2,0.6,1.8,0.8c8.4,3.1,19.5-1.9,21.2-10.7l0.1-0.4c0.7-3.5,0.5-7-0.1-10.5c-0.6-3.4-0.7-6.9-0.2-10.4
			c0.2-1.4,0.5-2.8,0.8-4.2c0.2-3.9-2.6-7.6-5.5-9.7c-2.4-1.8-5.2-3.2-8.2-4.5c-1.4-0.7-2.9-1.4-4.4-2.1c-1.2-0.6-1.6-2.2-0.8-3.4
			c0.7-0.9,2-1.1,3-0.6c1.3,0.7,2.7,1.4,4.1,2c3,1.4,6.2,2.9,9,5c1.3,1,2.5,2.1,3.6,3.5c0.9,1.1,2.6,1.1,3.4-0.1
			c0.8-1.2,1.6-2.3,2.5-3.4c0.6-0.7,1.3-1.4,1.9-2.1c2.6-2.9,5-5.6,5-8.7c0-1.3,1-2.3,2.3-2.3c1.3,0,2.3,1,2.3,2.3
			c0.1,4.9-3.3,8.6-6.2,11.8c-0.6,0.7-1.2,1.4-1.8,2c-2.7,3.3-4.7,7.2-5.8,11.3c0,0.1,0,0.2,0,0.3c0,0.2-0.1,0.5-0.2,0.7
			c-0.5,2.2-0.8,4.4-0.8,6.6c0,3.4,2.9,5.7,6.3,5.4c0,0,0.1,0,0.1,0c4-0.9,8-2,11.8-3.4c18.5-6.7,31.4-22.4,25.9-43.5
			c-6.3-24.2-30.9-35.7-53.6-37.8c-15.1-1.4-30.9-0.2-45.7,2.9c-0.2,0.1-0.4,0.2-0.6,0.3c-2.6,2.6-3.4,6.8-2.4,10.3
			c2.2,4,7.4,5.4,11.5,5.4c3,0,5.9-0.5,9-1c2.1-0.4,4.4-0.8,6.6-1c7.1-0.6,13,1.1,16.7,4.8c0.8,0.8,0.9,2.2,0.2,3.1
			c-0.5,0.6-1.2,0.9-1.9,0.8c-0.6,0-1.1-0.3-1.6-0.7c-3.6-3.7-9.7-3.8-13-3.5c-2.1,0.2-4.1,0.5-6.2,0.9l-0.1,0
			c-1.9,0.3-2.4,2.8-0.8,3.8c0.5,0.3,1,0.7,1.5,1.1c4.1,3.2,6,8,4.9,12.2c-0.3,1.1-1.2,1.7-2.3,1.7c-0.3,0-0.6-0.1-0.9-0.2
			c-1-0.5-1.5-1.6-1.2-2.7c0.7-2.8-1.2-5.7-3.3-7.4c-2.7-2.1-5.5-2.9-8.7-4c-0.3-0.1-0.6-0.2-0.9-0.3c-3.6-1.2-7.7-2.8-10.7-6
			c-2.1-2.2-3.3-5.1-3.7-8.1c-0.5-3.9-4.5-6.3-8.1-4.8c-18.6,7.7-34.8,21.5-45.2,40.6c-1.1,2,1.1,4.2,3.1,3.3
			c0.9-0.4,1.8-0.8,2.8-1.1c2.7-1,5.5-1.6,8.3-2c1.7-1.2,2.9-3.1,4.2-5.1c0.6-0.9,1.2-1.8,1.8-2.7c3.3-4.5,8.2-7.9,13.6-9.4
			c1.3-0.4,2.6,0.4,2.9,1.8c0.2,1.2-0.5,2.3-1.7,2.6c-4.4,1.3-8.4,4-11.1,7.7c-0.6,0.8-1.1,1.6-1.6,2.4l0,0c-0.5,0.8,0.1,1.9,1,1.9
			c2.9,0,5.6,0.1,7.9,0.3c0.5,0,1,0.1,1.5,0.1c3.3,0.3,6.4,0.5,9.4,0c3.5-0.6,6.4-2.4,7.6-4.8c0.6-1.1,2-1.6,3.1-1
			c1.1,0.6,1.6,2,1,3.1c-1.9,3.7-5.9,6.3-10.9,7.2c-3.6,0.6-7.1,0.4-10.5,0.1c-0.5,0-1-0.1-1.4-0.1c-4.1-0.3-9.6-0.5-15.2,0.3
			c-0.2,0-0.4,0.1-0.5,0.1c-2.5,0.4-5.1,1-7.6,1.9C12.1,58,6.6,62.5,3.7,67.9C-4,93.4,1.5,109.3,8.9,118.8"/>
	</g>
</g>
</svg>
