<?xml version="1.0" encoding="UTF-8"?>
<svg xmlns="http://www.w3.org/2000/svg" viewBox="0 0 1057.74 170.27">
  <defs>
    <style>.cls-1{fill:#37404e;}.cls-2{fill:#4961ac;}</style>
  </defs>
  <g id="Institute">
    <path class="cls-2" d="m196.54,130.82v37.75h-4.19v-37.75h4.19Z" />
    <path class="cls-2" d="m223.25,168.57v-39.33l29.43,30.84v-29.26h4.19v39.44l-29.43-30.84v29.15h-4.19Z" />
    <path class="cls-2" d="m300.43,138.29c-.51-1.02-1.36-2.15-2.21-2.83-.74-.57-2.09-1.3-4.24-1.3-3.74,0-6.34,2.32-6.34,5.83,0,1.47.4,2.32,1.41,3.28,1.13,1.13,2.55,1.75,3.96,2.38l3.62,1.58c2.21.96,4.25,1.98,5.83,3.57,1.92,1.92,2.72,4.13,2.72,6.85,0,6.96-5.15,11.6-11.94,11.6-2.49,0-5.6-.51-8.21-3.06-1.87-1.81-3-4.41-3.51-6.68l4.08-1.13c.28,1.98,1.19,3.68,2.26,4.81,1.64,1.64,3.51,2.09,5.43,2.09,5.15,0,7.58-3.68,7.58-7.47,0-1.7-.51-3.17-1.87-4.41-1.08-1.02-2.55-1.7-4.53-2.6l-3.4-1.58c-1.47-.68-3.34-1.47-5.04-3.11-1.64-1.58-2.6-3.34-2.6-6.17,0-5.83,4.47-9.73,10.58-9.73,2.32,0,4.19.45,6.06,1.7,1.53,1.02,2.83,2.55,3.68,4.19l-3.34,2.21Z" />
    <path class="cls-2" d="m336.76,134.78v33.79h-4.19v-33.79h-9.17v-3.96h22.52v3.96h-9.17Z" />
    <path class="cls-2" d="m372.75,130.82v37.75h-4.19v-37.75h4.19Z" />
    <path class="cls-2" d="m408.75,134.78v33.79h-4.19v-33.79h-9.17v-3.96h22.52v3.96h-9.17Z" />
    <path class="cls-2" d="m444.73,153.97c0,3.17,0,6.62,3,9.17,1.53,1.3,4.13,2.15,6.23,2.15s4.7-.85,6.22-2.15c3-2.55,3-6,3-9.17v-23.15h4.19v24.28c0,3.17-.34,6.22-2.38,9.05-2.26,3.11-6.22,5.09-11.03,5.09s-8.77-1.98-11.04-5.09c-2.04-2.83-2.38-5.89-2.38-9.05v-24.28h4.19v23.15Z" />
    <path class="cls-2" d="m503.36,134.78v33.79h-4.19v-33.79h-9.17v-3.96h22.52v3.96h-9.17Z" />
    <path class="cls-2" d="m554.75,134.78h-15.39v11.21h14.94v3.96h-14.94v14.66h15.39v3.96h-19.58v-37.75h19.58v3.96Z" />
  </g>
  <g id="NeuroDynamics">
    <path class="cls-1" d="m192.35,99.86V0l67.88,71.11V6.31h14.31v99.3l-67.88-71.11v65.36h-14.31Z" />
    <path class="cls-1" d="m333.24,43.8h-26.11v16.59h25.33v9.42h-25.33v20.62h26.11v9.42h-36.13V34.38h36.13v9.42Z" />
    <path class="cls-1" d="m358.67,34.38v39.46c0,3.53.1,7.85,2.06,11.29,1.96,3.34,6.38,6.77,12.17,6.77s10.21-3.44,12.17-6.77c1.96-3.44,2.06-7.76,2.06-11.29v-39.46h10.01v42.11c0,5.2-1.08,11.49-6.09,16.98-3.44,3.73-9.23,7.66-18.16,7.66s-14.73-3.93-18.16-7.66c-5.01-5.5-6.09-11.78-6.09-16.98v-42.11h10.01Z" />
    <path class="cls-1" d="m427,34.38c7.95,0,13.06.98,17.28,3.83,7.17,4.81,7.76,12.57,7.76,15.41,0,9.42-5.79,16.3-14.53,18.26l20.42,27.98h-12.07l-18.75-26.8h-1.77v26.8h-10.01V34.38h11.68Zm-1.67,30.04h3.14c2.75,0,13.94-.29,13.94-10.7,0-9.23-8.74-10.11-13.64-10.11h-3.44v20.81Z" />
    <path class="cls-1" d="m535.18,67.17c0,19.24-14.43,33.97-34.06,33.97s-34.07-14.73-34.07-33.97,14.43-33.97,34.07-33.97,34.06,14.73,34.06,33.97Zm-10.01,0c0-14.53-10.01-24.74-24.05-24.74s-24.05,10.21-24.05,24.74,10.01,24.74,24.05,24.74,24.05-10.21,24.05-24.74Z" />
    <path class="cls-1" d="m573.21,6.31c13.04,0,24.4,1.4,34.78,9.12,11.36,8.56,17.95,22.16,17.95,37.73s-6.45,29.03-18.79,37.73c-10.94,7.71-21.18,8.98-34.22,8.98h-19.35V6.31h19.64Zm-5.33,80.08h6.17c7.01,0,16.69-.56,24.82-6.59,6.45-4.91,12.76-13.88,12.76-26.65s-5.89-22.02-12.62-26.93c-8.13-5.89-18.09-6.45-24.96-6.45h-6.17v66.62Z" />
    <path class="cls-1" d="m657.68,71.59l-21.5-37.21h11.39l15.12,26.21,15.12-26.21h11.39l-21.5,37.21v28.27h-10.01v-28.27Z" />
    <path class="cls-1" d="m699.5,99.86V29.96l47.51,49.77v-45.35h10.01v69.5l-47.51-49.77v45.75h-10.01Z" />
    <path class="cls-1" d="m813.68,84.05h-27.98l-7.17,15.81h-10.8l32.59-69.31,31.02,69.31h-10.8l-6.87-15.81Zm-4.02-9.42l-9.72-22.19-10.11,22.19h19.83Z" />
    <path class="cls-1" d="m840.09,99.86l13.74-70.39,22.77,50.85,22.97-50.85,12.37,70.39h-10.21l-6.68-39.46-19.04,42.51-18.85-42.6-6.87,39.56h-10.21Z" />
    <path class="cls-1" d="m938.16,34.38v65.48h-10.01V34.38h10.01Z" />
    <path class="cls-1" d="m1004.82,49.69c-7.26-6.58-14.04-7.26-17.77-7.26-14.23,0-23.85,10.5-23.85,24.93s10.01,24.54,23.95,24.54c7.85,0,13.94-4.02,17.67-7.56v11.88c-6.58,3.93-13.45,4.91-17.97,4.91-11.88,0-19.34-5.4-23.17-9.03-7.66-7.17-10.5-15.51-10.5-24.74,0-12.07,5.01-20.42,10.5-25.62,6.77-6.38,14.63-8.54,23.66-8.54,5.99,0,11.78,1.08,17.47,4.71v11.78Z" />
    <path class="cls-1" d="m1047.92,48.91c-.59-1.47-1.47-2.85-2.94-4.12-2.06-1.67-4.22-2.36-7.07-2.36-6.09,0-9.23,3.63-9.23,7.85,0,1.96.69,5.4,7.07,7.95l6.58,2.65c12.07,4.91,15.41,11.78,15.41,19.24,0,12.47-8.84,21.01-21.11,21.01-7.56,0-12.07-2.85-15.41-6.58-3.53-3.93-5.1-8.25-5.5-12.76l9.92-2.16c0,3.24,1.18,6.28,2.75,8.34,1.87,2.36,4.61,3.93,8.54,3.93,6.09,0,10.8-4.42,10.8-11s-5.1-9.42-9.42-11.19l-6.28-2.65c-5.4-2.26-13.35-6.77-13.35-16.59,0-8.83,6.87-17.28,19.14-17.28,7.07,0,11.09,2.65,13.16,4.42,1.77,1.57,3.63,3.83,5.01,6.58l-8.05,4.71Z" />
  </g>
  <g id="Brain">
    <path class="cls-1" d="m32.82,125.71c.18.72.41,1.46.69,2.22,3.5,9.6,10.9,9.08,15.29,7.76.25-.31.51-.6.78-.87,1.44-1.45,3.08-2.52,4.67-3.55.94-.61,1.82-1.18,2.64-1.81,5.49-4.26,8.12-6.07,6.38-12.79-.32-1.22.42-2.47,1.64-2.78,1.22-.31,2.47.42,2.78,1.64,2.18,8.44-1.11,12.21-8,17.55-.97.75-1.97,1.4-2.95,2.03-.94.61-1.84,1.2-2.65,1.83.38.4.77.77,1.18,1.1,4.75,3.98,7.73,9.65,7.46,15.84l-.48,10.96c-.13,2.85,2.07,5.28,4.92,5.44h0c2.9.16,5.36-2.07,5.5-4.97.47-9.8,2.7-30.07,13.04-32.49,3.42-.8,6.05-2.59,8.08-4.82-3.83-3.62-9.25-5.58-14.49-4.98-1.25.14-2.39-.76-2.53-2.01-.15-1.25.75-2.39,2.01-2.53,6.35-.73,12.92,1.54,17.68,5.78,2.28-4.01,3.28-8.43,3.71-11.14-5.46-2.46-10.36-6.12-15.09-9.65-.83-.62-1.67-1.24-2.51-1.86-.21-.15-.41-.32-.59-.49-.6-.56-1.43-.81-2.24-.67h0c-.71.12-1.33.54-1.74,1.14-1.54,2.27-4.16,3.66-7.05,3.55-14.64-.53-26.31,5.13-34.66,16.84-1,1.41-2.16,2.66-3.45,3.73" />
    <path class="cls-2" d="m8.87,119.44c5.92,7.65,17.49,7.34,23.1-.53.19-.27.38-.53.58-.79,3.69-4.98,7.85-8.82,12.36-11.66,7.93-5,16.9-6.93,26.15-6.6,3.14.11,4.27-4.07,1.47-5.5l-1.53-.78c-11.45-5.85-24.44-4.13-36.16,1.17-1.1.49-2.4.05-2.97-1.02-.58-1.12-.15-2.5.97-3.08,12.76-6.66,28.7-6.82,41.59-.43l.03.02c.87.43,1.71-.63,1.1-1.37-1.11-1.35-2.34-2.6-3.67-3.74-.91-.77-1.86-1.49-2.87-2.25-1.82-1.37-3.71-2.8-5.34-4.58-3.28-3.58-4.6-7.94-3.52-11.67.35-1.21,1.61-1.91,2.83-1.56,1.21.35,1.91,1.61,1.56,2.83-.74,2.58.8,5.47,2.5,7.32,1.36,1.48,2.99,2.71,4.73,4.02,1.02.77,2.07,1.56,3.08,2.42,4.64,3.95,8.14,9.07,10.15,14.82.12.36.35.67.65.89.75.55,1.51,1.11,2.25,1.67.1.07.2.15.29.22,4.14,3.09,8.13,6.07,12.41,8.25.58.3,1.17.58,1.76.84,8.42,3.11,19.54-1.87,21.22-10.73l.08-.4c.66-3.48.51-7.03-.1-10.51-.59-3.38-.66-6.89-.21-10.42.18-1.43.45-2.83.8-4.19.24-3.92-2.63-7.57-5.49-9.73-2.43-1.84-5.22-3.15-8.18-4.55-1.43-.68-2.91-1.38-4.35-2.14-1.21-.64-1.61-2.23-.76-3.38.68-.92,1.96-1.15,2.97-.62,1.33.7,2.73,1.37,4.1,2.01,3.03,1.43,6.17,2.91,8.98,5.03,1.27.95,2.53,2.15,3.64,3.52.91,1.11,2.6,1.09,3.38-.12.76-1.19,1.59-2.32,2.5-3.4.61-.73,1.26-1.44,1.89-2.14,2.59-2.87,5.04-5.57,5-8.69-.02-1.26.99-2.3,2.25-2.31,1.26-.01,2.3.99,2.31,2.25.06,4.91-3.25,8.58-6.18,11.81-.63.7-1.22,1.35-1.78,2.02-2.74,3.25-4.68,7.15-5.76,11.3-.01.09-.02.18-.03.27-.03.24-.11.47-.21.68-.49,2.17-.75,4.4-.77,6.63-.03,3.39,2.91,5.67,6.29,5.39.04,0,.08,0,.13-.02,4.01-.87,7.98-1.96,11.84-3.36,18.51-6.72,31.43-22.41,25.9-43.48C165.49,14.9,140.94,3.34,118.23,1.25c-15.08-1.39-30.87-.22-45.66,2.95-.22.12-.43.23-.65.35-2.57,2.6-3.37,6.76-2.37,10.31,2.16,3.99,7.37,5.44,11.54,5.45,2.96,0,5.9-.5,9-1.04,2.15-.37,4.37-.76,6.62-.96,7.11-.64,13.03,1.08,16.66,4.85.81.84.91,2.17.17,3.07-.48.59-1.18.87-1.86.84-.57-.02-1.14-.26-1.57-.71-3.57-3.75-9.67-3.8-12.99-3.5-2.06.19-4.1.54-6.25.91h-.07c-1.9.34-2.4,2.83-.77,3.86.52.33,1.03.69,1.52,1.08,4.08,3.21,6,8.01,4.88,12.23-.28,1.05-1.24,1.74-2.29,1.7-.29,0-.58-.07-.86-.2-1.03-.46-1.52-1.63-1.25-2.73.69-2.78-1.16-5.72-3.31-7.41-2.68-2.1-5.45-2.92-8.66-4-.3-.1-.59-.2-.88-.3-3.63-1.23-7.74-2.81-10.73-5.97-2.1-2.22-3.34-5.09-3.74-8.1-.52-3.89-4.47-6.27-8.1-4.77-18.56,7.66-34.77,21.46-45.15,40.63-1.09,2.01,1.05,4.2,3.14,3.26.91-.41,1.83-.78,2.78-1.12,2.73-.97,5.52-1.62,8.26-2.04,1.67-1.16,2.89-3.05,4.17-5.05.57-.89,1.16-1.8,1.8-2.68,3.35-4.55,8.18-7.91,13.62-9.45,1.29-.37,2.63.45,2.87,1.8.21,1.15-.54,2.29-1.66,2.61-4.45,1.27-8.41,4.02-11.15,7.75-.56.76-1.09,1.58-1.64,2.44v.02c-.54.81.06,1.87,1.02,1.86,2.93-.03,5.63.11,7.93.28.48.03.97.07,1.45.11,3.29.26,6.39.5,9.38-.03,3.53-.62,6.37-2.42,7.62-4.82.58-1.12,1.96-1.56,3.08-.97,1.12.58,1.56,1.96.97,3.08-1.92,3.7-5.89,6.33-10.87,7.21-3.56.63-7.11.36-10.53.09-.48-.04-.95-.07-1.43-.11-4.12-.3-9.6-.51-15.25.28-.18.05-.36.08-.54.08-2.53.38-5.1.97-7.58,1.85-6.79,2.41-12.29,6.91-15.18,12.3-7.71,25.52-2.21,41.42,5.14,50.9" />
  </g>
</svg>